<?xml version="1.0" encoding="UTF-8" standalone="no"?>
<svg
   xmlns:dc="http://purl.org/dc/elements/1.1/"
   xmlns:cc="http://creativecommons.org/ns#"
   xmlns:rdf="http://www.w3.org/1999/02/22-rdf-syntax-ns#"
   xmlns:svg="http://www.w3.org/2000/svg"
   xmlns="http://www.w3.org/2000/svg"
   viewBox="0 0 5163.96 5163.96"
   height="5163.96"
   width="5163.96"
   xml:space="preserve"
   id="svg2"
   version="1.1"><metadata
     id="metadata8"><rdf:RDF><cc:Work
         rdf:about=""><dc:format>image/svg+xml</dc:format><dc:type
           rdf:resource="http://purl.org/dc/dcmitype/StillImage" /></cc:Work></rdf:RDF></metadata><defs
     id="defs6" /><g
     transform="matrix(1.3333333,0,0,-1.3333333,0,5163.96)"
     id="g10"><g
       transform="scale(0.1)"
       id="g12"><g
         transform="scale(2.37606)"
         id="g14"><path
           id="path16"
           style="fill:#eeddb3;fill-opacity:1;fill-rule:evenodd;stroke:none"
           d="m 8149.98,16300 h 0.04 C 12632.5,16300 16300,12632.5 16300,8150.02 v -0.04 C 16300,3667.51 12632.5,0 8150.02,0 h -0.04 C 3667.49,0 0,3667.51 0,8149.98 v 0.04 C 0,12632.5 3667.49,16300 8149.98,16300" /></g><g
         transform="scale(1.95474)"
         id="g18"><path
           id="path20"
           style="fill:#d2a638;fill-opacity:1;fill-rule:evenodd;stroke:none"
           d="m 10054,8410.52 c 295.3,-23.28 374.1,-12.53 593.6,-136.59 522.4,-323.27 672.3,-1041.67 194.2,-1519.79 -176,-175.93 -418.7,-285.26 -685.5,-285.26 H 5396.16 c -266.79,0 -509.5,109.22 -685.51,285.26 -126.82,127.69 -249.52,317.84 -267.86,502.37 -32.85,331.14 -6.86,593.99 267.86,868.7 243.82,243.87 483.74,285.31 787.72,285.31 z M 5891.06,10311.4 h 3597.3 c 223.71,0 223.71,-346.76 0,-346.76 h -3597.3 c -223.77,0 -223.77,346.76 0,346.76 z m 5101.04,-142.5 c 239.2,0 239.2,-370.63 0,-370.63 -239.2,0 -239.2,370.63 0,370.63 z m -4285.13,1580.2 v -392.9 h -155.98 v 392.9 h 155.98 z M 9221.01,7439.65 c 0,-246.22 -381.17,-246.02 -381.17,0 0,246.27 381.17,246.07 381.17,0 z M 9030.4,6902.29 c -296.31,0 -537.31,241.16 -537.31,537.36 0,296.36 241.1,537.31 537.31,537.31 296.3,0 537.31,-241.16 537.31,-537.31 0,-296.3 -241.16,-537.36 -537.31,-537.36 z m 1254.2,346.8 c -246.3,0 -246.1,381.23 0,381.23 246.2,0 246.1,-381.23 0,-381.23 z m -537.33,190.56 c 0,296.36 241.16,537.31 537.33,537.31 296.3,0 537.3,-241.16 537.3,-537.31 0,-296.3 -241.1,-537.36 -537.3,-537.36 -296.38,0 -537.33,241.16 -537.33,537.36 z M 5267.91,7249.09 c -246.27,0 -246.12,381.23 0,381.23 246.22,0 246.06,-381.23 0,-381.23 z m 0,-346.8 c -296.35,0 -537.36,241.16 -537.36,537.36 0,296.36 241.16,537.31 537.36,537.31 296.3,0 537.3,-241.16 537.3,-537.31 0,-296.3 -241.15,-537.36 -537.3,-537.36 z m 1254.18,346.8 c -246.23,0 -246.07,381.23 0,381.23 246.17,0 246.07,-381.23 0,-381.23 z m -537.31,190.56 c 0,296.36 241.1,537.31 537.31,537.31 296.3,0 537.31,-241.16 537.31,-537.31 0,-296.3 -241.16,-537.36 -537.31,-537.36 -296.31,0 -537.31,241.16 -537.31,537.36 z m 1791.44,-190.56 c -246.23,0 -246.07,381.23 0,381.23 246.27,0 246.06,-381.23 0,-381.23 z m 0,-346.8 c -296.31,0 -537.31,241.16 -537.31,537.36 0,296.36 241.16,537.31 537.31,537.31 296.35,0 537.36,-241.16 537.36,-537.31 0,-296.3 -241.16,-537.36 -537.36,-537.36 z m 6148.38,537.36 v 2582.85 l 676,-1582.26 c 142.9,-372.37 333,-779.49 492.6,-1152.99 h -1168.6 v 152.4 z m -2195.3,2393.31 -206.1,118.89 c 17.9,300.85 -225.3,563.85 -531.1,563.85 -293.4,0 -532.1,-238.6 -532.1,-532.08 0,-493.83 610.2,-707.77 929.4,-353.86 l 339.9,-196.29 V 7297.74 h -263.1 c 23,212.61 -5.1,415.91 -79.4,611.9 176.5,176.59 440.4,357.54 276.5,521.5 -163.2,163.09 -345.7,-100.58 -451,-205.76 -68.1,92.8 -156.8,181 -246.9,252.57 63.8,238.29 202,527.74 -21.9,587.59 -223.5,59.55 -249.7,-263 -288.1,-406.9 -136.9,55.5 -279.1,88.85 -428,96.73 0,185.81 58.4,511.32 -173.4,511.32 -231.78,0 -173.36,-325.72 -173.36,-509.42 H 9468.1 c 0,183.7 58.47,509.42 -173.32,509.42 -231.8,0 -173.37,-325.72 -173.37,-509.42 h -412.54 c 0,183.7 58.37,509.42 -173.37,509.42 -231.8,0 -173.43,-325.72 -173.43,-509.42 h -412.43 c 0,162.83 61.39,534.7 -191.23,508.5 -211.07,-21.84 -155.67,-310.37 -155.67,-508.5 h -412.53 c 0,183.7 58.42,509.42 -173.38,509.42 -231.74,0 -173.37,-325.72 -173.37,-509.42 h -412.49 c 0,183.7 58.43,509.42 -173.37,509.42 -231.79,0 -173.37,-325.72 -173.37,-509.42 h -412.54 c 0,183.7 58.48,509.42 -173.32,509.42 -231.85,0 -173.37,-325.51 -173.37,-511.32 -33.15,-2.04 -65.54,-4.75 -98.43,-9.1 V 11009.3 H 11729.3 V 9832.96 Z m -1164,2423.94 h -205.4 v 695.6 l 516.2,516.2 v -210.8 c -87.3,-79.2 -310.8,-235 -310.8,-358.3 v -642.7 z m -421.6,-900.8 v 554 h 637.8 v -554 h -637.8 z m 1022.1,1697.3 v 0 z m -3552.57,-695.8 960.38,-554.6 131.99,-446.9 h -213.48 l -593.28,593.4 c -158.18,158.1 -403.33,-87 -245.2,-245.2 l 348.18,-348.2 h -948.15 v 393 c 126.15,0 288.47,-1.9 288.47,173.4 0,230 -313.23,173.4 -461.85,173.4 h -617.67 v 1104.3 c 0,223.7 -346.8,223.7 -346.8,0 v -1277.7 c 0,-175.3 162.32,-173.4 288.42,-173.4 v -393 h -558.48 v 2491.6 H 7970.1 l 461.4,-1563.2 -644.95,372.4 c -193.17,111.7 -366.44,-187.5 -173.32,-299.3 z m 1272.6,-390.6 -555.17,1880.7 c 131.68,0 320.66,-15.9 320.66,173.3 0,231.9 -317.23,173.4 -552.15,173.4 H 5063.66 c -223.72,0 -223.72,-346.7 0,-346.7 h 235.35 v -2491.6 c -144.21,0 -419.21,45 -419.21,-173.3 V 8722.89 c -36.78,137.15 -65.35,397.49 -270.93,342.65 -223.78,-59.85 -85.92,-348.69 -21.87,-587.7 -93.12,-72.79 -176.21,-157.72 -246.95,-252.46 -105.21,105.18 -287.87,368.85 -450.97,205.76 -163.91,-163.96 99.92,-345.01 276.53,-521.61 -36.23,-94.23 -61.88,-193.47 -75.54,-296.46 -197.06,0 -520.9,58.43 -520.9,-173.42 0,-231.8 323.84,-173.37 520.9,-173.37 13.66,-102.98 39.31,-202.23 75.54,-296.46 -176.61,-176.65 -440.44,-357.75 -276.53,-521.6 163.1,-163.2 345.76,100.57 450.97,205.75 70.74,-94.69 153.83,-179.66 246.95,-252.41 -64.05,-239.06 -201.91,-528 21.87,-587.75 223.41,-59.55 249.62,263.15 288.16,407.06 133.23,-55.04 277.36,-88.71 427.97,-96.84 0,-185.86 -58.48,-511.37 173.37,-511.37 231.8,0 173.32,325.82 173.32,509.43 h 412.54 c 0,-183.61 -58.42,-509.43 173.37,-509.43 231.8,0 173.37,325.82 173.37,509.43 h 412.49 c 0,-183.61 -58.37,-509.43 173.37,-509.43 231.8,0 173.38,325.82 173.38,509.43 h 412.53 c 0,-162.84 -61.44,-534.71 191.23,-508.51 211.13,21.84 155.67,310.37 155.67,508.51 h 412.43 c 0,-183.61 -58.37,-509.43 173.43,-509.43 231.74,0 173.37,325.82 173.37,509.43 h 412.54 c 0,-183.61 -58.43,-509.43 173.37,-509.43 231.79,0 173.32,325.82 173.32,509.43 h 412.54 c 0,-183.61 -58.42,-509.43 173.36,-509.43 231.8,0 173.4,325.51 173.4,511.37 150.6,8.13 294.7,41.8 428,96.74 38.4,-143.91 64.6,-466.51 288.1,-406.96 223.7,59.75 85.9,348.59 21.9,587.65 l 227.1,226.52 c 105.9,-105.79 292.4,-372.68 455.2,-209.9 163.8,163.86 -100.4,345.37 -273.9,519 l 5.6,14.02 c 636,0 696.7,-70.19 696.7,315.18 h 1501.8 c 0,-131.58 -13,-325.78 173.4,-325.78 h 2324.9 c 223.8,0 223.8,346.75 0,346.75 h -606.9 l -147.2,344.45 h 754.1 c 223.8,0 223.8,346.79 0,346.79 H 15174 l -147.2,344.45 h 1049.4 c 223.8,0 223.8,346.74 0,346.74 h -1197.6 l -963.2,2254.82 c -66,172 -337.5,141.7 -337.5,-55.9 V 8765.66 l -1501.8,867.07 v 1550.07 c 0,95.7 -77.7,173.3 -173.5,173.3 h -774.3 v 727.4 c 0,126.9 -107.6,173.4 -216.2,173.4 v 566.4 c 88.7,80.3 310.6,234 310.7,358.2 v 705.8 c 0,155.9 -193.8,226.3 -297.9,120.5 l -861,-860.9 c -33.8,-33.9 -50.7,-78.2 -50.7,-122.6 v -767.4 c -108.67,0 -216.21,-46.5 -216.21,-173.4 v -727.4 H 9066.21 L 8885.83,11967 Z M 12076.1,7613.07 v 1620.27 l 1501.8,-867.07 v -753.2 h -1501.8 v 0" /></g></g></g></svg>